{"title":"Citizenfour 2014 HDTV 720p Legendado PT-BR","uid":12758184,"size":2474028447,"categoryP":"video","categoryS":"hd___movies","magnet":"?xt=urn:btih:2c9f6003fadb92cd299c8452168c7ab5d757f404&amp;dn=Citizenfour+2014+HDTV+720p+Legendado+PT-BR&amp;tr=udp%3A%2F%2Ftracker.leechers-paradise.org%3A6969&amp;tr=udp%3A%2F%2Fzer0day.ch%3A1337&amp;tr=udp%3A%2F%2Fopen.demonii.com%3A1337&amp;tr=udp%3A%2F%2Ftracker.coppersurfer.tk%3A6969&amp;tr=udp%3A%2F%2Fexodus.desync.com%3A6969","seeders":2,"leechers":0,"uploader":null,"files":1,"time":1447483526,"description":"Audio: English\r\nLegendas/subtitles: Português (hardsubed)\r\n\r\n=========================================\r\nIn January 2013, Laura Poitras started receiving anonymous encrypted e-mails from &quot;CITIZENFOUR,&quot; who claimed to have evidence of illegal covert surveillance programs run by the NSA in collaboration with other intelligence agencies worldwide. Five months later, she and reporters Glenn Greenwald and Ewen MacAskill flew to Hong Kong for the first of many meetings with the man who turned out to be Edward Snowden. She brought her camera with her. The resulting film is history unfolding before our eyes.\r\n\r\n=========================================\r\n\r\nEm janeiro de 2013, Laura Poitras começou a receber emails anônimos e criptografados do &quot;CITIZENFOUR&quot;, que afirmava ter provas de vigilância ilegal praticada por programas da Agência Nacional de Segurança americana (NSA) em colaboração com outras agências de inteligência do mundo. Cinco meses depois, ela e os repórteres Glenn Greenwald e Ewen MacAskill voaram para Hong Kong para o primeiro de muitos encontros com o homem que hoje conhecemos como Edward Snowden. Ela levou sua câmera com ela. O resultado do filme é a História se desenrolando diante dos nossos olhos.\r\n\r\n=========================================\r\n\r\nVideo\r\nID                             : 1\r\nFormat                         : AVC\r\nFormat/Info                    : Advanced Video Codec\r\nFormat profile                 :   \r\nFormat settings, CABAC         : Yes\r\nFormat settings, ReFrames      : 4 frames\r\nCodec ID                       : V_MPEG4/ISO/AVC\r\nDuration                       : 1h 48mn\r\nBit rate                       : 2 649 Kbps\r\nWidth                          : 1 280 pixels\r\nHeight                         : 720 pixels\r\nDisplay aspect ratio           : 16:9\r\nFrame rate mode                : Constant\r\nFrame rate                     : 60.000 fps\r\nOriginal frame rate            : 59.940 fps\r\nColor space                    : YUV\r\nChroma subsampling             : 4:2:0\r\nBit depth                      : 8 bits\r\nScan type                      : Progressive\r\nBits/(Pixel*Frame)             : 0.048\r\nStream size                    : 1.97 GiB (85%)\r\nWriting library                : x264 core 146 r2538 121396c\r\n\r\nAudio\r\nID                             : 2\r\nFormat                         : AC-3\r\nFormat/Info                    : Audio Coding 3\r\nMode extension                 : CM (complete main)\r\nFormat settings, Endianness    : Big\r\nCodec ID                       : A_AC3\r\nDuration                       : 1h 48mn\r\nBit rate mode                  : Constant\r\nBit rate                       : 384 Kbps\r\nChannel(s)                     : 2 channels\r\nChannel positions              : Front: L R\r\nSampling rate                  : 48.0 KHz\r\nBit depth                      : 16 bits\r\nCompression mode               : Lossy\r\nDelay relative to video        : 20ms\r\nStream size                    : 298 MiB (13%)\r\nLanguage                       : English\r\nDefault                        : Yes\r\nForced                         : No","torrent":{"xt":"urn:btih:2c9f6003fadb92cd299c8452168c7ab5d757f404","amp;dn":"Citizenfour+2014+HDTV+720p+Legendado+PT-BR","amp;tr":["udp%3A%2F%2Ftracker.leechers-paradise.org%3A6969","udp%3A%2F%2Fzer0day.ch%3A1337","udp%3A%2F%2Fopen.demonii.com%3A1337","udp%3A%2F%2Ftracker.coppersurfer.tk%3A6969","udp%3A%2F%2Fexodus.desync.com%3A6969"],"infoHash":"2c9f6003fadb92cd299c8452168c7ab5d757f404","infoHashBuffer":{"type":"Buffer","data":[44,159,96,3,250,219,146,205,41,156,132,82,22,140,122,181,215,87,244,4]},"announce":[],"urlList":[]}}